<?xml version="1.0" encoding="UTF-8" standalone="no"?> <svg width="64" height="64" viewBox="0 0 64 64" fill="none" xmlns="http://www.w3.org/2000/svg">
<path d="M43.25 40.68C42.9185 40.68 42.6005 40.8117 42.3661 41.0461C42.1317 41.2805 42 41.5985 42 41.93V58.75H5.25V5.25H42V22.07C42 22.4015 42.1317 22.7195 42.3661 22.9539C42.6005 23.1883 42.9185 23.32 43.25 23.32C43.5815 23.32 43.8995 23.1883 44.1339 22.9539C44.3683 22.7195 44.5 22.4015 44.5 22.07V4C44.5 3.66848 44.3683 3.35054 44.1339 3.11612C43.8995 2.8817 43.5815 2.75 43.25 2.75H4C3.66848 2.75 3.35054 2.8817 3.11612 3.11612C2.8817 3.35054 2.75 3.66848 2.75 4V60C2.75 60.3315 2.8817 60.6495 3.11612 60.8839C3.35054 61.1183 3.66848 61.25 4 61.25H43.25C43.5815 61.25 43.8995 61.1183 44.1339 60.8839C44.3683 60.6495 44.5 60.3315 44.5 60V41.93C44.5 41.5985 44.3683 41.2805 44.1339 41.0461C43.8995 40.8117 43.5815 40.68 43.25 40.68Z" fill="black"/>
<path d="M60.63 30.9199L48 23.6299C47.7544 23.4859 47.467 23.43 47.1853 23.4715C46.9037 23.513 46.6446 23.6494 46.451 23.8582C46.2574 24.0669 46.1409 24.3355 46.1207 24.6195C46.1005 24.9035 46.1779 25.1859 46.34 25.4199L50 30.7499H18.63C18.2985 30.7499 17.9805 30.8816 17.7461 31.1161C17.5117 31.3505 17.38 31.6684 17.38 31.9999C17.38 32.3315 17.5117 32.6494 17.7461 32.8838C17.9805 33.1183 18.2985 33.2499 18.63 33.2499H50L46.34 38.58C46.1885 38.8151 46.1195 39.0941 46.144 39.3728C46.1685 39.6515 46.2851 39.9141 46.4753 40.1192C46.6655 40.3243 46.9186 40.4603 47.1947 40.5057C47.4708 40.5511 47.7541 40.5034 48 40.3699L60.63 33.08C60.8164 32.968 60.9706 32.8096 61.0777 32.6204C61.1847 32.4311 61.241 32.2174 61.241 31.9999C61.241 31.7825 61.1847 31.5688 61.0777 31.3795C60.9706 31.1903 60.8164 31.0319 60.63 30.9199V30.9199Z" fill="black"/>
</svg>
