<svg width="624.2" height="120" viewBox="0 0 624.2 120" xmlns="http://www.w3.org/2000/svg"><g id="svgGroup" stroke-linecap="round" fill-rule="evenodd" font-size="9pt" stroke="#000" stroke-width="0.25mm" fill="#000" style="stroke:#000;stroke-width:0.25mm;fill:#000"><path d="M 235.2 67.8 Q 232.9 75.1 230.6 81.1 A 118.741 118.741 0 0 1 227.608 88.229 A 98.638 98.638 0 0 1 225.7 92.15 Q 223.1 97.2 220.1 101.45 Q 217.1 105.7 213.5 109.5 Q 208.9 114.3 204 116.85 A 23.087 23.087 0 0 1 198.641 118.876 A 19.29 19.29 0 0 1 194.2 119.4 Q 191.7 119.4 189.25 118.85 A 25.086 25.086 0 0 1 185.192 117.581 A 22.895 22.895 0 0 1 184.65 117.35 A 20.383 20.383 0 0 1 182.172 116.054 A 16.871 16.871 0 0 1 180.85 115.15 A 10.252 10.252 0 0 1 179.706 114.151 Q 178.927 113.353 178.5 112.5 A 2.042 2.042 0 0 1 178.981 111.197 Q 179.222 110.895 179.585 110.62 A 4.92 4.92 0 0 1 179.9 110.4 Q 181.074 111.476 181.864 112.073 A 12.743 12.743 0 0 0 181.9 112.1 A 13.428 13.428 0 0 0 182.784 112.712 A 10.516 10.516 0 0 0 183.45 113.1 Q 184.2 113.5 185.05 113.6 Q 185.781 113.686 186.696 113.698 A 23.058 23.058 0 0 0 187 113.7 Q 192.7 113.7 198.15 110.35 A 34.892 34.892 0 0 0 203.932 105.849 A 47.629 47.629 0 0 0 208.45 100.85 Q 213.224 94.796 217.175 86.223 A 99.343 99.343 0 0 0 217.3 85.95 A 108.74 108.74 0 0 0 221.729 74.525 A 135.98 135.98 0 0 0 224.1 66.4 A 1154.123 1154.123 0 0 1 223.041 68.027 Q 222.088 69.488 220.9 71.3 A 71.856 71.856 0 0 1 216.772 76.961 A 78.336 78.336 0 0 1 216.7 77.05 Q 214.4 79.9 211.95 82.2 A 18.824 18.824 0 0 1 210.134 83.714 Q 208.638 84.8 207.2 85.3 A 13.095 13.095 0 0 1 205.142 84.999 A 16.104 16.104 0 0 1 203.85 84.65 Q 202.1 84.1 200.55 83.1 Q 199 82.1 197.8 80.7 Q 196.6 79.3 196.2 77.5 A 69.357 69.357 0 0 1 196.22 75.8 Q 196.26 74.169 196.382 73.012 A 19.677 19.677 0 0 1 196.4 72.85 Q 196.6 71.1 197.1 69 A 61.877 61.877 0 0 1 198.05 65.484 Q 198.766 63.1 199.75 60.4 Q 201.5 55.6 203.85 50.95 Q 206.2 46.3 209.05 42.25 A 34.131 34.131 0 0 1 211.592 39.041 Q 213.256 37.194 215 35.9 Q 215.544 35.9 216.272 35.969 A 24.862 24.862 0 0 1 217 36.05 A 13.932 13.932 0 0 1 218.692 36.373 A 16.659 16.659 0 0 1 219.5 36.6 Q 220.8 37 222 37.55 Q 223.2 38.1 224.1 39 Q 223.007 39.993 219.348 45.626 A 239.164 239.164 0 0 0 219.3 45.7 A 61.03 61.03 0 0 0 216.909 49.751 Q 214.576 54.042 211.963 60.078 A 210.872 210.872 0 0 0 211.1 62.1 Q 210.717 62.942 210.217 64.371 A 65.633 65.633 0 0 0 209.9 65.3 Q 209.2 67.4 208.55 69.7 A 89.943 89.943 0 0 0 207.463 73.925 A 82.469 82.469 0 0 0 207.4 74.2 A 28.627 28.627 0 0 0 207.139 75.472 Q 206.925 76.661 206.903 77.506 A 7.286 7.286 0 0 0 206.9 77.7 Q 206.9 78.438 207.113 78.835 A 1.106 1.106 0 0 0 207.15 78.9 A 5.718 5.718 0 0 0 207.301 79.13 Q 207.463 79.363 207.6 79.5 A 4.566 4.566 0 0 0 208.708 79.145 Q 209.798 78.655 211.2 77.553 A 27.185 27.185 0 0 0 212.4 76.55 A 25.441 25.441 0 0 0 214.353 74.606 Q 216.588 72.15 219.2 68.3 A 112.715 112.715 0 0 0 223.349 61.594 A 103.069 103.069 0 0 0 223.6 61.15 Q 225.6 57.6 227.55 54 A 994.839 994.839 0 0 1 231.338 47.074 A 1084.749 1084.749 0 0 1 231.6 46.6 Q 233.7 42.8 236.1 38.8 A 12.872 12.872 0 0 1 237.626 38.895 A 16.457 16.457 0 0 1 238.9 39.1 Q 240.4 39.4 241.8 39.85 Q 243.178 40.293 244.216 40.832 A 11.225 11.225 0 0 1 244.25 40.85 A 7.67 7.67 0 0 1 244.893 41.225 Q 245.468 41.602 245.8 42 A 418.436 418.436 0 0 0 240.681 53.32 A 381.09 381.09 0 0 0 240 54.9 Q 237.3 61.2 235.2 67.8 Z M 55.9 73.35 A 83.522 83.522 0 0 0 55.664 75.07 Q 55.2 78.749 55.2 81.6 A 3.772 3.772 0 0 0 55.233 82.084 Q 55.275 82.411 55.372 82.779 A 8.304 8.304 0 0 0 55.6 83.5 Q 56 84.6 56.45 85.65 A 11.015 11.015 0 0 0 56.525 85.822 Q 56.731 86.28 56.956 86.667 A 6.387 6.387 0 0 0 57.45 87.4 Q 57.855 87.915 58.124 88.051 A 0.396 0.396 0 0 0 58.3 88.1 A 0.683 0.683 0 0 0 58.524 88.058 Q 58.752 87.979 59.03 87.748 A 3.995 3.995 0 0 0 59.3 87.5 Q 59.9 86.9 60.2 86.2 A 82.269 82.269 0 0 1 60.478 85.538 A 89.19 89.19 0 0 1 65.45 75.65 Q 68.5 70.4 71.95 65.7 A 109.769 109.769 0 0 1 73.251 63.964 A 97.122 97.122 0 0 1 79.05 57.05 A 63.29 63.29 0 0 1 82.291 53.78 A 48.394 48.394 0 0 1 86.3 50.4 Q 87.4 49.6 88.65 48.8 Q 89.646 48.163 90.039 48.033 A 0.545 0.545 0 0 1 90.2 48 A 0.589 0.589 0 0 1 90.348 48.017 Q 90.529 48.064 90.58 48.242 A 0.576 0.576 0 0 1 90.6 48.4 A 326.328 326.328 0 0 0 90.301 49.012 A 299.289 299.289 0 0 0 86.1 58 Q 84 62.7 82.5 66.65 A 128.03 128.03 0 0 0 81.833 68.447 Q 80.801 71.291 80.15 73.55 Q 79.539 75.67 79.367 77.042 A 7.795 7.795 0 0 0 79.3 78 Q 79.3 79.2 79.75 80.3 Q 80.2 81.4 80.95 82.3 Q 81.7 83.2 82.7 83.75 A 4.924 4.924 0 0 0 83.263 84.016 A 3.885 3.885 0 0 0 84.7 84.3 A 2.95 2.95 0 0 0 85.097 84.27 Q 85.857 84.166 87.1 83.7 A 47.771 47.771 0 0 0 87.3 83.624 A 52.178 52.178 0 0 0 90.35 82.35 A 33.718 33.718 0 0 0 90.78 82.151 Q 91.414 81.852 91.976 81.553 A 20.211 20.211 0 0 0 93.2 80.85 Q 94.4 80.1 94.4 79.7 Q 94.4 79.563 94.353 79.378 A 2.608 2.608 0 0 0 94.3 79.2 A 1.305 1.305 0 0 0 94.265 79.108 Q 94.165 78.871 93.9 78.426 A 19.039 19.039 0 0 0 93.7 78.1 A 0.224 0.224 0 0 0 93.691 78.1 Q 93.521 78.107 92.913 78.364 A 18.79 18.79 0 0 0 92.6 78.5 A 3.875 3.875 0 0 1 91.962 78.715 Q 91.22 78.9 90.2 78.9 A 4.643 4.643 0 0 1 89.842 78.887 Q 89.413 78.854 89.156 78.735 A 0.741 0.741 0 0 1 88.9 78.55 A 0.857 0.857 0 0 1 88.77 78.338 Q 88.655 78.077 88.618 77.646 A 5.219 5.219 0 0 1 88.6 77.2 A 6.831 6.831 0 0 1 88.716 76.026 Q 89.051 74.13 90.35 71.05 Q 92.1 66.9 94.85 62.05 Q 97.6 57.2 100.9 52.4 Q 102.653 49.85 104.35 47.695 A 63.422 63.422 0 0 1 107.3 44.2 A 20.747 20.747 0 0 0 106.826 43.623 A 17.983 17.983 0 0 0 102 39.6 A 17.361 17.361 0 0 0 101.233 39.19 Q 100.093 38.617 99.013 38.299 A 9.227 9.227 0 0 0 96.4 37.9 A 10.036 10.036 0 0 0 92.693 38.709 Q 85.692 41.518 74.752 54.074 A 208.378 208.378 0 0 0 67.9 62.4 Q 68.8 58.8 69.85 55.55 Q 70.9 52.3 72.2 49.05 Q 73.5 45.8 75.05 42.5 Q 76.6 39.2 78.5 35.4 Q 80.469 31.519 83.229 27.337 A 118.804 118.804 0 0 1 88 20.65 A 156.883 156.883 0 0 1 91.094 16.734 A 177.849 177.849 0 0 1 101.5 5.1 A 8.993 8.993 0 0 0 101.184 4.799 Q 100.358 4.05 99.15 3.3 A 16.173 16.173 0 0 0 98.394 2.859 A 18.424 18.424 0 0 0 95.95 1.75 Q 94.2 1.1 92.35 0.7 A 18.913 18.913 0 0 0 90.779 0.427 A 14.669 14.669 0 0 0 88.9 0.3 A 100.066 100.066 0 0 0 86.78 2.816 A 117.946 117.946 0 0 0 82.15 8.9 Q 78.8 13.6 75.7 18.8 Q 72.6 24 69.95 29.4 A 133.378 133.378 0 0 0 69.621 30.075 A 121.692 121.692 0 0 0 65.3 40.1 Q 63 46 61.15 51.9 A 222.578 222.578 0 0 0 60.043 55.539 A 190.276 190.276 0 0 0 57.95 63.2 Q 56.6 68.6 55.9 73.35 Z M 304.258 112.055 A 1.707 1.707 0 0 0 303.9 113.1 Q 304.6 114.5 306.2 115.75 A 15.617 15.617 0 0 0 307.705 116.786 A 19.459 19.459 0 0 0 309.95 117.95 Q 312.1 118.9 314.6 119.45 Q 317.1 120 319.5 120 Q 321.3 120 323.45 119.5 Q 325.6 119 327.85 118 Q 330.1 117 332.25 115.55 Q 334.4 114.1 336.1 112.2 Q 339.7 108.2 342.55 103.85 A 76.837 76.837 0 0 0 343.605 102.194 A 85.991 85.991 0 0 0 347.85 94.45 A 140.822 140.822 0 0 0 349.674 90.536 A 171.5 171.5 0 0 0 352.65 83.45 Q 355 77.5 357.7 70.3 A 389.484 389.484 0 0 1 358.133 69.123 Q 359.488 65.455 361.25 60.9 Q 363.3 55.6 366.7 47.8 Q 366.113 47.213 364.824 46.679 A 15.481 15.481 0 0 0 363.8 46.3 A 17.089 17.089 0 0 0 361.513 45.718 A 23.17 23.17 0 0 0 359 45.4 A 63.617 63.617 0 0 1 356.885 50.367 A 79.359 79.359 0 0 1 353.35 56.95 A 76.524 76.524 0 0 1 352.394 58.51 A 68.125 68.125 0 0 1 345.5 67.7 Q 343.6 69.8 341.5 71.85 Q 339.4 73.9 337.45 75.45 A 62.182 62.182 0 0 1 336.558 76.146 Q 335.833 76.701 335.169 77.173 A 33.46 33.46 0 0 1 333.95 78 A 11.862 11.862 0 0 1 333.417 78.325 Q 332.665 78.756 332.092 78.912 A 2.275 2.275 0 0 1 331.5 79 A 0.471 0.471 0 0 1 331.434 78.996 A 0.323 0.323 0 0 1 331.2 78.85 Q 331.119 78.728 331.104 78.243 A 7.781 7.781 0 0 1 331.1 78 A 13.384 13.384 0 0 1 331.156 76.79 Q 331.28 75.428 331.676 73.925 A 25.574 25.574 0 0 1 332.65 71 A 49.569 49.569 0 0 1 333.939 68.047 A 60.176 60.176 0 0 1 336.65 63 A 63.783 63.783 0 0 1 337.116 62.233 A 69.756 69.756 0 0 1 342.3 54.95 A 79.282 79.282 0 0 1 344.707 52.114 A 65.056 65.056 0 0 1 348.75 47.95 A 45.022 45.022 0 0 1 351.775 45.343 A 33.706 33.706 0 0 1 355.15 43 Q 357.07 41.842 358.711 41.39 A 7.497 7.497 0 0 1 360.7 41.1 Q 362.4 41.1 363.5 41.7 A 15.01 15.01 0 0 0 362.964 39.864 Q 362.618 38.923 362.172 38.196 A 5.762 5.762 0 0 0 360.95 36.75 A 5.4 5.4 0 0 0 359.399 35.869 Q 357.893 35.3 355.7 35.3 Q 352.1 35.3 348.35 36.85 A 33.914 33.914 0 0 0 346.016 37.921 A 39.207 39.207 0 0 0 340.95 41 A 41.973 41.973 0 0 0 340.044 41.664 A 45.793 45.793 0 0 0 334.05 47.1 Q 330.8 50.6 328.4 54.55 A 47.667 47.667 0 0 0 328.104 55.044 A 43.039 43.039 0 0 0 324.55 62.6 A 27.457 27.457 0 0 0 323.899 64.701 A 22.903 22.903 0 0 0 323.1 70.6 Q 323.1 73 323.7 75.15 A 15.822 15.822 0 0 0 323.998 76.101 A 13.461 13.461 0 0 0 325.4 79 A 13.329 13.329 0 0 0 325.834 79.631 A 11.412 11.412 0 0 0 327.95 81.85 A 8.137 8.137 0 0 0 328.224 82.058 A 6.882 6.882 0 0 0 331.1 83.3 Q 332.4 82.8 334.25 81.7 A 64.106 64.106 0 0 0 334.713 81.422 A 70.931 70.931 0 0 0 338 79.3 Q 339.9 78 341.65 76.55 A 59.501 59.501 0 0 0 342.44 75.884 Q 343.073 75.341 343.623 74.835 A 32.568 32.568 0 0 0 344.6 73.9 A 132.46 132.46 0 0 1 342.08 82.099 A 101.222 101.222 0 0 1 338.6 90.9 A 82.226 82.226 0 0 1 338.387 91.367 Q 335.07 98.563 331.05 103.6 A 38.746 38.746 0 0 1 327.245 107.745 A 28.437 28.437 0 0 1 322.2 111.55 Q 317.5 114.3 312.3 114.3 A 21.952 21.952 0 0 1 311.801 114.295 Q 311.399 114.285 311.042 114.261 A 11.559 11.559 0 0 1 310.4 114.2 A 4.272 4.272 0 0 1 310.35 114.193 A 4.454 4.454 0 0 1 308.85 113.7 Q 308.1 113.3 307.25 112.7 Q 306.692 112.306 305.984 111.697 A 32.998 32.998 0 0 1 305.2 111 A 13.59 13.59 0 0 0 304.942 111.266 A 11.704 11.704 0 0 0 304.3 112 A 2.141 2.141 0 0 0 304.258 112.055 Z M 561.758 112.055 A 1.707 1.707 0 0 0 561.4 113.1 Q 562.1 114.5 563.7 115.75 A 15.617 15.617 0 0 0 565.205 116.786 A 19.459 19.459 0 0 0 567.45 117.95 Q 569.6 118.9 572.1 119.45 Q 574.6 120 577 120 Q 578.8 120 580.95 119.5 Q 583.1 119 585.35 118 Q 587.6 117 589.75 115.55 Q 591.9 114.1 593.6 112.2 Q 597.2 108.2 600.05 103.85 A 76.837 76.837 0 0 0 601.105 102.194 A 85.991 85.991 0 0 0 605.35 94.45 A 140.822 140.822 0 0 0 607.174 90.536 A 171.5 171.5 0 0 0 610.15 83.45 Q 612.5 77.5 615.2 70.3 A 389.484 389.484 0 0 1 615.633 69.123 Q 616.988 65.455 618.75 60.9 Q 620.8 55.6 624.2 47.8 Q 623.613 47.213 622.324 46.679 A 15.481 15.481 0 0 0 621.3 46.3 A 17.089 17.089 0 0 0 619.013 45.718 A 23.17 23.17 0 0 0 616.5 45.4 A 63.617 63.617 0 0 1 614.385 50.367 A 79.359 79.359 0 0 1 610.85 56.95 A 76.524 76.524 0 0 1 609.894 58.51 A 68.125 68.125 0 0 1 603 67.7 Q 601.1 69.8 599 71.85 Q 596.9 73.9 594.95 75.45 A 62.182 62.182 0 0 1 594.058 76.146 Q 593.333 76.701 592.669 77.173 A 33.46 33.46 0 0 1 591.45 78 A 11.862 11.862 0 0 1 590.917 78.325 Q 590.165 78.756 589.592 78.912 A 2.275 2.275 0 0 1 589 79 A 0.471 0.471 0 0 1 588.934 78.996 A 0.323 0.323 0 0 1 588.7 78.85 Q 588.619 78.728 588.604 78.243 A 7.781 7.781 0 0 1 588.6 78 A 13.384 13.384 0 0 1 588.656 76.79 Q 588.78 75.428 589.176 73.925 A 25.574 25.574 0 0 1 590.15 71 A 49.569 49.569 0 0 1 591.439 68.047 A 60.176 60.176 0 0 1 594.15 63 A 63.783 63.783 0 0 1 594.616 62.233 A 69.756 69.756 0 0 1 599.8 54.95 A 79.282 79.282 0 0 1 602.207 52.114 A 65.056 65.056 0 0 1 606.25 47.95 A 45.022 45.022 0 0 1 609.275 45.343 A 33.706 33.706 0 0 1 612.65 43 Q 614.57 41.842 616.211 41.39 A 7.497 7.497 0 0 1 618.2 41.1 Q 619.9 41.1 621 41.7 A 15.01 15.01 0 0 0 620.464 39.864 Q 620.118 38.923 619.672 38.196 A 5.762 5.762 0 0 0 618.45 36.75 A 5.4 5.4 0 0 0 616.899 35.869 Q 615.393 35.3 613.2 35.3 Q 609.6 35.3 605.85 36.85 A 33.914 33.914 0 0 0 603.516 37.921 A 39.207 39.207 0 0 0 598.45 41 A 41.973 41.973 0 0 0 597.544 41.664 A 45.793 45.793 0 0 0 591.55 47.1 Q 588.3 50.6 585.9 54.55 A 47.667 47.667 0 0 0 585.604 55.044 A 43.039 43.039 0 0 0 582.05 62.6 A 27.457 27.457 0 0 0 581.399 64.701 A 22.903 22.903 0 0 0 580.6 70.6 Q 580.6 73 581.2 75.15 A 15.822 15.822 0 0 0 581.498 76.101 A 13.461 13.461 0 0 0 582.9 79 A 13.329 13.329 0 0 0 583.334 79.631 A 11.412 11.412 0 0 0 585.45 81.85 A 8.137 8.137 0 0 0 585.724 82.058 A 6.882 6.882 0 0 0 588.6 83.3 Q 589.9 82.8 591.75 81.7 A 64.106 64.106 0 0 0 592.213 81.422 A 70.931 70.931 0 0 0 595.5 79.3 Q 597.4 78 599.15 76.55 A 59.501 59.501 0 0 0 599.94 75.884 Q 600.573 75.341 601.123 74.835 A 32.568 32.568 0 0 0 602.1 73.9 A 132.46 132.46 0 0 1 599.58 82.099 A 101.222 101.222 0 0 1 596.1 90.9 A 82.226 82.226 0 0 1 595.887 91.367 Q 592.57 98.563 588.55 103.6 A 38.746 38.746 0 0 1 584.745 107.745 A 28.437 28.437 0 0 1 579.7 111.55 Q 575 114.3 569.8 114.3 A 21.952 21.952 0 0 1 569.301 114.295 Q 568.899 114.285 568.542 114.261 A 11.559 11.559 0 0 1 567.9 114.2 A 4.272 4.272 0 0 1 567.85 114.193 A 4.454 4.454 0 0 1 566.35 113.7 Q 565.6 113.3 564.75 112.7 Q 564.192 112.306 563.484 111.697 A 32.998 32.998 0 0 1 562.7 111 A 13.59 13.59 0 0 0 562.442 111.266 A 11.704 11.704 0 0 0 561.8 112 A 2.141 2.141 0 0 0 561.758 112.055 Z M 0 63.7 Q 0 56.7 1.65 49.95 Q 3.3 43.2 6.3 37.15 Q 9.3 31.1 13.45 26.05 Q 17.6 21 22.55 17.3 Q 27.5 13.6 33.1 11.55 Q 38.7 9.5 44.6 9.5 Q 49.276 9.5 52.552 10.832 A 12.366 12.366 0 0 1 55.35 12.4 A 9.33 9.33 0 0 1 59.14 19.236 A 12.963 12.963 0 0 1 59.2 20.5 A 15.769 15.769 0 0 1 58.837 23.816 A 18.052 18.052 0 0 1 58.65 24.6 A 20.351 20.351 0 0 1 57.179 28.494 A 22.512 22.512 0 0 1 57.05 28.75 Q 56 30.8 54.6 32.7 A 18.629 18.629 0 0 1 52.024 35.55 A 16.988 16.988 0 0 1 51.5 36 Q 48.9 35.6 47 33.65 Q 45.1 31.7 44.6 29.1 A 31.668 31.668 0 0 0 47.727 26.149 A 23.725 23.725 0 0 0 50.15 23.05 A 16.186 16.186 0 0 0 51.275 21.042 Q 52.2 19.047 52.2 17.3 A 4.978 4.978 0 0 0 51.856 15.375 Q 50.96 13.223 47.725 12.942 A 11.855 11.855 0 0 0 46.7 12.9 A 12.28 12.28 0 0 0 43.504 13.339 A 15.254 15.254 0 0 0 41.95 13.85 A 22.889 22.889 0 0 0 38.868 15.33 A 28.356 28.356 0 0 0 37 16.5 A 30.596 30.596 0 0 0 33.484 19.305 A 35.996 35.996 0 0 0 32.15 20.6 Q 29.8 23 27.8 25.9 A 82.844 82.844 0 0 0 18.087 44.13 A 64.291 64.291 0 0 0 13.9 66.8 Q 13.9 74.2 16.2 78.7 A 13.374 13.374 0 0 0 17.779 81.145 Q 18.969 82.585 20.438 83.34 A 7.373 7.373 0 0 0 22.3 84 A 18.543 18.543 0 0 0 25.212 83.033 Q 28.663 81.594 33.2 78.5 Q 38.872 74.633 45.43 68.772 A 182.415 182.415 0 0 0 47.6 66.8 A 5.163 5.163 0 0 1 48.257 67.592 Q 48.619 68.138 48.76 68.712 A 3.127 3.127 0 0 1 48.8 68.9 Q 45.9 72.7 42.8 76.2 A 108.969 108.969 0 0 1 38.561 80.729 A 93.015 93.015 0 0 1 36.65 82.6 A 71.369 71.369 0 0 1 32.888 85.942 A 58.323 58.323 0 0 1 30.65 87.7 A 42.968 42.968 0 0 1 28.241 89.378 Q 27.044 90.149 25.932 90.732 A 23.228 23.228 0 0 1 25.2 91.1 A 36.134 36.134 0 0 1 17.79 90.266 Q 10.725 88.663 6.4 84 A 21.946 21.946 0 0 1 1.702 75.791 Q 0.592 72.411 0.206 68.295 A 49.259 49.259 0 0 1 0 63.7 Z M 286.3 34.8 Q 288.9 35.6 291.2 38.35 Q 293.5 41.1 294.6 44.4 A 31.706 31.706 0 0 1 293.654 46.483 Q 293.164 47.474 292.55 48.578 A 72.532 72.532 0 0 1 291.2 50.9 Q 288.9 54.7 286.6 58.65 A 197.586 197.586 0 0 0 283.901 63.431 A 161.766 161.766 0 0 0 282.45 66.15 Q 280.736 69.44 280.352 71.656 A 8.376 8.376 0 0 0 280.3 72 A 107.563 107.563 0 0 0 281.877 70.285 Q 282.814 69.245 283.85 68.05 Q 285.8 65.8 287.65 63.55 Q 289.5 61.3 291.1 59.45 Q 292.7 57.6 293.6 56.7 A 306.918 306.918 0 0 1 295.124 55.109 Q 296.475 53.706 298.1 52.05 Q 300.7 49.4 303.55 47.05 A 42.719 42.719 0 0 1 307.492 44.15 A 36.735 36.735 0 0 1 309.3 43.05 Q 311.457 41.823 313.337 41.508 A 7.651 7.651 0 0 1 314.6 41.4 A 6.354 6.354 0 0 1 316.954 41.824 A 5.838 5.838 0 0 1 318.95 43.15 A 16.759 16.759 0 0 1 320.682 45.166 A 13.542 13.542 0 0 1 321.7 46.8 A 0.179 0.179 0 0 1 321.656 46.906 Q 321.523 47.079 320.987 47.333 A 7.326 7.326 0 0 1 320.95 47.35 Q 320.254 47.675 319 49.075 A 25.218 25.218 0 0 0 318.8 49.3 A 24.826 24.826 0 0 0 317.796 50.697 Q 316.799 52.183 315.65 54.25 A 87.823 87.823 0 0 0 313.291 58.818 A 102.881 102.881 0 0 0 312.25 61.05 Q 310.6 64.7 309.5 68.5 A 30.848 30.848 0 0 0 308.748 71.691 Q 308.454 73.349 308.409 74.85 A 18.005 18.005 0 0 0 308.4 75.4 A 15.035 15.035 0 0 0 308.431 76.408 Q 308.531 77.889 308.952 78.48 A 1.201 1.201 0 0 0 309.05 78.6 A 2.108 2.108 0 0 0 310.109 79.21 Q 310.446 79.294 310.846 79.3 A 4.051 4.051 0 0 0 310.9 79.3 A 5.417 5.417 0 0 0 312.278 79.114 A 7.059 7.059 0 0 0 313.2 78.8 A 10.078 10.078 0 0 1 313.836 78.558 Q 314.597 78.3 315.1 78.3 Q 315.5 78.5 315.75 79.15 A 4.479 4.479 0 0 1 315.902 79.616 Q 315.963 79.848 315.986 80.057 A 2.23 2.23 0 0 1 316 80.3 Q 315.2 81 314.1 81.7 Q 313 82.4 311.8 83 A 20.67 20.67 0 0 1 310.101 83.759 A 17.884 17.884 0 0 1 309.45 84 A 8.357 8.357 0 0 1 308.573 84.255 Q 308.139 84.355 307.747 84.386 A 4.387 4.387 0 0 1 307.4 84.4 Q 304.5 84.4 302.65 83.55 Q 300.8 82.7 299.75 81.3 A 7.805 7.805 0 0 1 298.586 79.031 A 9.742 9.742 0 0 1 298.3 77.95 A 19.85 19.85 0 0 1 297.926 74.901 A 23.189 23.189 0 0 1 297.9 73.8 A 17.205 17.205 0 0 1 297.947 72.567 Q 297.997 71.873 298.1 71.1 Q 298.253 69.952 298.641 68.481 A 35.731 35.731 0 0 1 298.9 67.55 A 44.989 44.989 0 0 1 299.42 65.9 Q 299.667 65.166 299.961 64.353 A 90.406 90.406 0 0 1 300.6 62.65 Q 301.7 59.8 303.4 55.8 A 0.304 0.304 0 0 0 303.314 55.822 Q 302.888 55.975 300.7 57.2 Q 298.764 58.284 296.588 60.268 A 38.65 38.65 0 0 0 295.3 61.5 A 129.767 129.767 0 0 0 289.796 67.086 A 108.627 108.627 0 0 0 286.85 70.4 A 142.926 142.926 0 0 0 282.224 76.134 A 176.6 176.6 0 0 0 279.2 80.2 Q 277 83.3 275.35 85.45 Q 273.7 87.6 272.5 88.3 Q 270.4 87.1 269.4 84.95 Q 268.4 82.8 267.9 80.5 Q 267.9 78.6 268.45 75.7 A 76.216 76.216 0 0 1 269.088 72.688 Q 269.456 71.104 269.92 69.363 A 123.135 123.135 0 0 1 269.95 69.25 A 88.008 88.008 0 0 1 271.313 64.676 A 105.317 105.317 0 0 1 272.3 61.8 Q 273.7 57.9 275.4 54 A 167.103 167.103 0 0 1 277.712 48.871 Q 280.184 43.638 282.35 40.2 A 127.267 127.267 0 0 1 283.101 39.022 Q 285.132 35.876 285.974 35.055 A 1.437 1.437 0 0 1 286.3 34.8 Z M 512.7 28.2 Q 512.7 34.4 509.3 39.25 Q 505.9 44.1 500 47.3 A 20.334 20.334 0 0 1 505.979 53.533 A 19.894 19.894 0 0 1 506.05 53.65 Q 508.3 57.4 508.3 61.9 A 18.875 18.875 0 0 1 506.621 69.585 A 24.214 24.214 0 0 1 505.05 72.55 A 33.111 33.111 0 0 1 498.35 80.289 A 38.903 38.903 0 0 1 496.4 81.85 A 46.023 46.023 0 0 1 486.428 87.495 A 53.099 53.099 0 0 1 484.1 88.4 Q 477.2 90.9 470 90.9 Q 462.2 90.9 456.35 87.95 Q 450.5 85 447.2 79.6 Q 448.2 76.6 449.85 72.15 Q 451.5 67.7 453.5 62.75 Q 455.5 57.8 457.55 52.9 Q 459.6 48 461.4 44.1 Q 463.775 38.788 465.838 34.608 A 155.738 155.738 0 0 1 468.2 30 A 103.431 103.431 0 0 1 470.204 26.422 Q 472.059 23.266 473.7 21.1 Q 468.2 22.8 463.7 24.95 Q 459.53 26.942 457.421 28.806 A 11.659 11.659 0 0 0 457.1 29.1 Q 456.4 28.634 455.671 27.805 A 12.586 12.586 0 0 1 455.25 27.3 A 22.209 22.209 0 0 1 453.881 25.359 A 25.607 25.607 0 0 1 453.45 24.65 Q 452.6 23.2 452.05 21.7 Q 451.5 20.2 451.4 19 A 24.5 24.5 0 0 1 453.568 17.671 Q 455.556 16.581 458.15 15.55 A 64.227 64.227 0 0 1 463.631 13.663 A 77.164 77.164 0 0 1 467.2 12.7 Q 472.1 11.5 477.25 10.8 Q 482.4 10.1 487.1 10.1 A 48.46 48.46 0 0 1 494.415 10.617 Q 498.197 11.196 501.278 12.422 A 22.257 22.257 0 0 1 505.9 14.9 A 15.964 15.964 0 0 1 510.781 20.213 Q 512.7 23.684 512.7 28.2 Z M 142.37 42.958 A 7.066 7.066 0 0 0 141.5 42.9 Q 140.4 45.2 139.15 47.65 Q 137.9 50.1 136.6 52.5 Q 135.3 54.9 134.05 57.1 Q 132.8 59.3 131.8 61.1 Q 128.003 67.498 124.997 71.549 A 48.71 48.71 0 0 1 122.6 74.55 A 32.47 32.47 0 0 1 121.458 75.794 Q 118.356 78.992 115.9 79.5 A 1.941 1.941 0 0 1 114.978 78.842 Q 114.5 78.21 114.5 77.1 Q 114.5 74.513 115.196 71.704 A 31.597 31.597 0 0 1 116.7 67.2 Q 118.9 61.9 122.35 57.25 A 45.451 45.451 0 0 1 123.229 56.104 A 40.045 40.045 0 0 1 130.05 49.3 A 27.375 27.375 0 0 1 131.142 48.494 Q 132.773 47.353 134.366 46.615 A 14.475 14.475 0 0 1 138.3 45.4 Q 138.231 44.778 137.827 43.988 A 8.861 8.861 0 0 0 137.4 43.25 A 14.432 14.432 0 0 0 136.809 42.397 A 17.077 17.077 0 0 0 135.45 40.8 A 19.346 19.346 0 0 0 135.088 40.432 A 17.153 17.153 0 0 0 133.05 38.7 A 11.983 11.983 0 0 0 132.385 38.253 Q 131.527 37.718 130.8 37.5 A 10.754 10.754 0 0 0 128.675 37.823 Q 125.57 38.611 122.3 41.25 A 38.837 38.837 0 0 0 118.703 44.557 A 47.769 47.769 0 0 0 114.15 50.1 Q 110.4 55.4 108 61.6 A 38.525 38.525 0 0 0 106.446 66.538 A 29.451 29.451 0 0 0 105.6 73.4 A 22.772 22.772 0 0 0 105.608 74.019 Q 105.739 78.802 107.9 81.95 A 10.371 10.371 0 0 0 108.497 82.738 A 7.315 7.315 0 0 0 113.9 85.5 Q 116.2 85.1 118.95 83.15 Q 121.7 81.2 124.4 78.1 A 53.631 53.631 0 0 0 126.743 75.206 A 67.976 67.976 0 0 0 129.7 70.95 Q 132.3 66.9 134.3 62.3 A 100.092 100.092 0 0 0 133.405 64.721 Q 130.5 72.916 130.5 77.9 A 16.233 16.233 0 0 0 130.615 79.901 Q 131.072 83.572 133.351 84.747 A 5.496 5.496 0 0 0 135.9 85.3 A 9.463 9.463 0 0 0 136.281 85.292 Q 136.971 85.264 137.741 85.137 A 17.046 17.046 0 0 0 139.3 84.8 A 15.2 15.2 0 0 0 139.948 84.615 Q 141.411 84.159 142.4 83.5 A 4.026 4.026 0 0 1 140.963 82.09 A 5.685 5.685 0 0 1 140.4 80.85 Q 139.8 79 139.8 76.2 Q 139.8 73.7 140.45 70.3 A 60.031 60.031 0 0 1 141.124 67.229 A 76.882 76.882 0 0 1 142.3 63 A 94.872 94.872 0 0 1 143.27 60.026 A 112.785 112.785 0 0 1 145.2 54.85 Q 146.9 50.6 148.9 46.4 A 0.746 0.746 0 0 0 148.862 46.17 Q 148.771 45.887 148.46 45.576 A 3.702 3.702 0 0 0 148.15 45.3 Q 147.728 44.963 147.196 44.641 A 12.842 12.842 0 0 0 146.3 44.15 Q 145.2 43.6 143.85 43.25 Q 143.049 43.042 142.37 42.958 Z M 516.3 64.55 A 109.312 109.312 0 0 0 515.788 66.564 Q 514.2 73.074 514.2 76.9 A 29.581 29.581 0 0 0 514.332 79.757 A 21.864 21.864 0 0 0 514.8 82.65 Q 515.4 85.2 516.3 85.8 Q 517 86.3 517.9 87.25 Q 518.575 87.963 518.856 88.422 A 1.882 1.882 0 0 1 519 88.7 A 1.784 1.784 0 0 0 519.29 89.159 Q 519.477 89.376 519.747 89.57 A 4.062 4.062 0 0 0 520.3 89.9 A 5.711 5.711 0 0 0 520.443 89.969 Q 520.949 90.205 521.552 90.368 A 9.607 9.607 0 0 0 522.7 90.6 Q 522.6 90.2 522.6 89.8 L 522.6 87.7 A 45.194 45.194 0 0 1 522.808 83.526 Q 523.044 80.992 523.548 78.075 A 108.391 108.391 0 0 1 524.8 71.95 Q 527 62.5 531.2 50.7 A 188.805 188.805 0 0 1 535.846 38.921 A 143.673 143.673 0 0 1 542 26.4 Q 547.9 15.8 555.7 6.6 Q 555.3 6 553.95 5 A 24.882 24.882 0 0 0 552.795 4.196 A 31.073 31.073 0 0 0 550.9 3.05 Q 549.2 2.1 547.45 1.3 A 19.166 19.166 0 0 0 546.361 0.84 Q 545.306 0.434 544.5 0.3 A 56.213 56.213 0 0 0 541.277 4.644 Q 537.624 10.061 533.85 17.85 A 203.926 203.926 0 0 0 531.144 23.68 Q 528.999 28.49 526.745 34.12 A 436.061 436.061 0 0 0 522.2 46 Q 519.825 52.625 518.114 58.215 A 170.483 170.483 0 0 0 516.3 64.55 Z M 419.15 46.183 A 18.17 18.17 0 0 0 419.5 43.5 A 3.893 3.893 0 0 0 419.4 43.166 Q 419.012 42.052 417.8 40.45 A 31.883 31.883 0 0 0 417.063 39.514 A 36.596 36.596 0 0 0 414.6 36.8 A 44.762 44.762 0 0 0 413.923 36.137 A 39.649 39.649 0 0 0 410.95 33.55 A 21.379 21.379 0 0 0 410.3 33.059 Q 409.381 32.394 408.678 32.06 A 4.129 4.129 0 0 0 408 31.8 A 14.09 14.09 0 0 0 406.673 32.176 A 15.566 15.566 0 0 0 403 34 Q 400.6 35.6 398.8 37.85 Q 397 40.1 395.9 42.75 A 15.716 15.716 0 0 0 395.767 43.081 A 13.755 13.755 0 0 0 394.8 48.1 Q 394.8 50.2 395.3 52.35 Q 395.8 54.5 396.35 56.75 A 127.873 127.873 0 0 1 396.384 56.891 A 139.24 139.24 0 0 1 397.4 61.4 Q 397.9 63.8 397.9 66.3 A 27.325 27.325 0 0 0 396.81 66.396 A 23.794 23.794 0 0 0 389.75 68.25 Q 386 69.9 383.25 72.55 Q 380.5 75.2 378.9 78.65 Q 377.3 82.1 377.3 85.9 A 7.683 7.683 0 0 0 377.786 87.158 A 9.532 9.532 0 0 0 378.7 88.65 Q 379.7 90 381.05 91.1 Q 382.4 92.2 383.9 92.9 A 9.712 9.712 0 0 0 385.057 93.355 A 7.493 7.493 0 0 0 386.8 93.7 A 24.356 24.356 0 0 0 391.297 92.846 A 17.167 17.167 0 0 0 399.45 87.8 A 17.337 17.337 0 0 0 403.367 80.108 A 25.183 25.183 0 0 0 404 74.3 A 56.923 56.923 0 0 0 404 74.242 Q 403.999 73.081 403.95 72.3 Q 403.9 71.5 403.9 70.7 A 3.91 3.91 0 0 1 403.915 70.341 Q 403.948 69.988 404.05 69.75 A 0.658 0.658 0 0 1 404.141 69.601 Q 404.285 69.419 404.587 69.252 A 3.457 3.457 0 0 1 404.9 69.1 A 6.785 6.785 0 0 1 405.166 68.993 Q 405.837 68.738 406.95 68.45 A 52.564 52.564 0 0 1 407.635 68.278 Q 408.839 67.983 410.6 67.6 A 1.18 1.18 0 0 0 410.861 67.188 Q 410.934 67.001 410.969 66.766 A 3.195 3.195 0 0 0 411 66.3 A 6.687 6.687 0 0 0 411 66.215 Q 410.995 65.828 410.944 65.625 A 0.617 0.617 0 0 0 410.9 65.5 Q 409.3 65.5 407.65 65.55 A 154.147 154.147 0 0 0 407.429 65.557 Q 405.861 65.607 403.9 65.7 A 0.239 0.239 0 0 1 403.897 65.694 Q 403.819 65.525 403.804 64.847 A 15.806 15.806 0 0 1 403.8 64.5 Q 403.8 54.8 405.9 49.8 Q 408 44.8 412 44.8 A 2.531 2.531 0 0 1 412.021 44.8 Q 412.687 44.806 413.186 45.162 A 2.32 2.32 0 0 1 413.75 45.75 A 3.601 3.601 0 0 1 414.289 47.018 A 4.994 4.994 0 0 1 414.4 48.1 A 3.242 3.242 0 0 1 414.386 48.392 Q 414.363 48.645 414.302 48.928 A 6.548 6.548 0 0 1 414.15 49.5 Q 413.9 50.3 413.6 51.1 Q 413.3 51.9 413.05 52.55 A 7.192 7.192 0 0 0 412.944 52.843 Q 412.851 53.122 412.818 53.316 A 1.121 1.121 0 0 0 412.8 53.5 Q 412.921 54.348 413.372 54.719 A 1.301 1.301 0 0 0 414.1 55 Q 414.7 55 415.356 54.381 A 5.097 5.097 0 0 0 415.8 53.9 Q 416.306 53.281 416.781 52.488 A 17.305 17.305 0 0 0 417.5 51.15 A 18.456 18.456 0 0 0 418.152 49.63 A 22.993 22.993 0 0 0 418.85 47.45 A 21.508 21.508 0 0 0 419.15 46.183 Z M 165.3 86.8 Q 159.6 86.2 156.2 81.8 Q 152.8 77.4 152.8 70.6 A 29.425 29.425 0 0 1 153.42 64.695 A 35.041 35.041 0 0 1 154 62.3 Q 155.2 58 157.4 53.95 Q 159.6 49.9 162.6 46.3 Q 165.6 42.7 169.1 40.1 Q 172.969 37.216 176.491 36.361 A 12.301 12.301 0 0 1 179.4 36 Q 182.6 37.7 185.7 43.1 A 8.6 8.6 0 0 0 186.168 43.088 Q 186.393 43.076 186.594 43.051 A 5.169 5.169 0 0 0 186.6 43.05 Q 186.997 43 187.492 43 A 10.873 10.873 0 0 1 187.5 43 A 4.366 4.366 0 0 1 191.674 45.732 Q 192.8 48.067 192.8 52.4 Q 192.8 58.7 190.75 64.35 Q 188.7 70 185.05 74.6 Q 181.4 79.2 176.35 82.35 Q 171.3 85.5 165.3 86.8 Z M 549.3 86.8 Q 543.6 86.2 540.2 81.8 Q 536.8 77.4 536.8 70.6 A 29.425 29.425 0 0 1 537.42 64.695 A 35.041 35.041 0 0 1 538 62.3 Q 539.2 58 541.4 53.95 Q 543.6 49.9 546.6 46.3 Q 549.6 42.7 553.1 40.1 Q 556.969 37.216 560.491 36.361 A 12.301 12.301 0 0 1 563.4 36 Q 566.6 37.7 569.7 43.1 A 8.6 8.6 0 0 0 570.168 43.088 Q 570.393 43.076 570.594 43.051 A 5.169 5.169 0 0 0 570.6 43.05 Q 570.997 43 571.492 43 A 10.873 10.873 0 0 1 571.5 43 A 4.366 4.366 0 0 1 575.674 45.732 Q 576.8 48.067 576.8 52.4 Q 576.8 58.7 574.75 64.35 Q 572.7 70 569.05 74.6 Q 565.4 79.2 560.35 82.35 Q 555.3 85.5 549.3 86.8 Z M 474.6 52.1 Q 472.7 51.2 471.1 49.4 Q 468.8 54.5 466.75 59.4 Q 464.7 64.3 463.1 68.5 A 203.551 203.551 0 0 0 461.984 71.495 Q 461.447 72.975 461.002 74.286 A 103.541 103.541 0 0 0 460.5 75.8 A 50.506 50.506 0 0 0 460.056 77.244 Q 459.675 78.56 459.511 79.465 A 7.963 7.963 0 0 0 459.4 80.3 A 9.745 9.745 0 0 0 461.041 81.037 A 13.438 13.438 0 0 0 462.75 81.5 A 17.186 17.186 0 0 0 464.346 81.744 Q 465.788 81.9 467.6 81.9 Q 474.4 81.9 480.6 80 A 42.494 42.494 0 0 0 487.434 77.268 A 35.223 35.223 0 0 0 491.5 74.85 A 30.417 30.417 0 0 0 496.299 70.775 A 25.313 25.313 0 0 0 499 67.4 Q 501.8 63.2 501.8 58.6 Q 501.8 52.445 496.843 49.508 A 13.193 13.193 0 0 0 496.1 49.1 A 42.4 42.4 0 0 1 485.286 51.887 A 53.997 53.997 0 0 1 478.5 52.3 L 476.35 52.3 A 6.922 6.922 0 0 1 475.673 52.264 Q 475.333 52.231 474.953 52.166 A 13.101 13.101 0 0 1 474.6 52.1 Z M 246.75 74.35 A 31.345 31.345 0 0 0 246.669 75.169 Q 246.6 75.988 246.6 76.6 A 8.574 8.574 0 0 0 246.698 77.916 A 6.517 6.517 0 0 0 247.6 80.4 A 12.887 12.887 0 0 0 248.351 81.479 A 10.272 10.272 0 0 0 249.85 83.05 A 13.397 13.397 0 0 0 250.006 83.179 Q 251.175 84.131 252.3 84.6 A 19.001 19.001 0 0 0 252.602 84.723 Q 253.553 85.1 253.9 85.1 A 0.457 0.457 0 0 0 254.326 84.853 Q 254.38 84.756 254.412 84.621 A 1.685 1.685 0 0 0 254.45 84.35 A 11.074 11.074 0 0 0 254.458 84.225 Q 254.5 83.458 254.5 81.8 A 14.367 14.367 0 0 1 254.591 80.728 Q 254.703 79.8 254.938 78.757 A 29.165 29.165 0 0 1 255.5 76.65 Q 256.4 73.7 257.5 70.9 A 195.254 195.254 0 0 0 258.288 68.867 A 165.852 165.852 0 0 0 259.85 64.6 Q 260.9 61.6 262.15 58.8 Q 263.4 56 264.95 53.4 A 30.791 30.791 0 0 1 266.333 51.288 A 37.813 37.813 0 0 1 268.8 48.2 A 17.577 17.577 0 0 0 268.255 47.452 A 14.908 14.908 0 0 0 264 43.65 Q 262.031 42.49 260.606 41.948 A 8.827 8.827 0 0 0 259.5 41.6 A 9.598 9.598 0 0 0 257.612 42.792 A 11.189 11.189 0 0 0 255.55 45 Q 253.9 47.3 252.75 49.75 A 43.926 43.926 0 0 0 251.83 51.846 A 34.607 34.607 0 0 0 250.9 54.4 Q 250.375 56.05 250.131 57.025 A 12.569 12.569 0 0 0 250 57.6 A 619.021 619.021 0 0 0 249.409 60.286 Q 249.131 61.565 248.887 62.717 A 316.063 316.063 0 0 0 248.35 65.3 A 330.121 330.121 0 0 0 247.968 67.207 Q 247.575 69.203 247.3 70.75 Q 247.025 72.297 246.868 73.418 A 33.429 33.429 0 0 0 246.75 74.35 Z M 494 17.4 Q 491.9 17.4 489.55 17.65 A 56.633 56.633 0 0 0 486.201 18.112 A 67.115 67.115 0 0 0 484.6 18.4 A 4.013 4.013 0 0 1 485.088 18.987 A 3.509 3.509 0 0 1 485.25 19.25 Q 485.5 19.7 485.7 20.2 A 18.407 18.407 0 0 0 485.099 21.057 Q 484.493 21.969 483.748 23.265 A 67.822 67.822 0 0 0 483.5 23.7 Q 482.2 26 480.6 29.05 Q 479 32.1 477.25 35.8 Q 475.5 39.5 473.7 43.4 A 23.837 23.837 0 0 1 475.081 43.121 Q 476.319 42.906 477.85 42.75 Q 480.3 42.5 482.7 42.5 Q 484 42.5 485.25 42.6 Q 486.5 42.7 487.7 42.9 A 46.005 46.005 0 0 0 492.766 41.772 A 36.213 36.213 0 0 0 496.35 40.55 Q 500.2 39 503 36.95 A 18.159 18.159 0 0 0 505.441 34.823 A 13.889 13.889 0 0 0 507.3 32.4 Q 508.8 29.9 508.8 27.1 Q 508.8 22.3 505 19.85 Q 502.35 18.142 498.048 17.625 A 34.017 34.017 0 0 0 494 17.4 Z M 170.4 55.3 A 44.919 44.919 0 0 0 167.77 59.302 A 50.526 50.526 0 0 0 167.2 60.3 Q 165.7 63 164.6 65.75 A 40.022 40.022 0 0 0 163.42 69.109 A 33.293 33.293 0 0 0 162.9 71.05 Q 162.375 73.282 162.309 75.092 A 14.039 14.039 0 0 0 162.3 75.6 Q 162.3 78 163.1 80.2 Q 163.66 81.739 164.317 82.348 A 1.499 1.499 0 0 0 164.9 82.7 Q 169.4 81.7 173.15 78.95 A 27.015 27.015 0 0 0 179.39 72.481 A 30.559 30.559 0 0 0 179.65 72.1 A 32.95 32.95 0 0 0 183.215 65.022 A 38.569 38.569 0 0 0 183.95 62.8 Q 185.5 57.6 185.5 51.7 A 36.686 36.686 0 0 0 185.471 50.182 Q 185.413 48.795 185.242 47.823 A 9.861 9.861 0 0 0 185.2 47.6 A 8.548 8.548 0 0 0 184.784 46.159 A 6.701 6.701 0 0 0 184.2 45 Q 179.8 46.3 176.35 49.2 A 42.965 42.965 0 0 0 172.055 53.329 A 36.856 36.856 0 0 0 170.4 55.3 Z M 554.4 55.3 A 44.919 44.919 0 0 0 551.77 59.302 A 50.526 50.526 0 0 0 551.2 60.3 Q 549.7 63 548.6 65.75 A 40.022 40.022 0 0 0 547.42 69.109 A 33.293 33.293 0 0 0 546.9 71.05 Q 546.375 73.282 546.309 75.092 A 14.039 14.039 0 0 0 546.3 75.6 Q 546.3 78 547.1 80.2 Q 547.66 81.739 548.317 82.348 A 1.499 1.499 0 0 0 548.9 82.7 Q 553.4 81.7 557.15 78.95 A 27.015 27.015 0 0 0 563.39 72.481 A 30.559 30.559 0 0 0 563.65 72.1 A 32.95 32.95 0 0 0 567.215 65.022 A 38.569 38.569 0 0 0 567.95 62.8 Q 569.5 57.6 569.5 51.7 A 36.686 36.686 0 0 0 569.471 50.182 Q 569.413 48.795 569.242 47.823 A 9.861 9.861 0 0 0 569.2 47.6 A 8.548 8.548 0 0 0 568.784 46.159 A 6.701 6.701 0 0 0 568.2 45 Q 563.8 46.3 560.35 49.2 A 42.965 42.965 0 0 0 556.055 53.329 A 36.856 36.856 0 0 0 554.4 55.3 Z M 381.664 32.141 A 2.941 2.941 0 0 0 382.1 32.6 Q 387.9 28.8 391.4 22.1 A 48.682 48.682 0 0 0 394.531 14.553 A 66.241 66.241 0 0 0 396.6 6.3 Q 395.3 3.8 391.35 2.05 Q 387.4 0.3 382.6 0 A 44.991 44.991 0 0 1 383.062 2.133 A 36.837 36.837 0 0 1 383.55 5.5 Q 383.8 8.1 383.8 10.6 Q 383.8 16.2 382.75 20.75 Q 381.7 25.3 380.5 28.8 Q 380.5 29.9 381 31 A 7.183 7.183 0 0 0 381.291 31.575 Q 381.472 31.893 381.664 32.141 Z M 265.724 32.815 A 3.569 3.569 0 0 0 265.7 33.2 A 1.606 1.606 0 0 0 265.847 33.855 Q 266.064 34.344 266.6 34.85 Q 267.5 35.7 268.7 35.9 Q 269.1 35.1 270.5 33.2 Q 271.9 31.3 273.6 29.15 Q 275.3 27 277.1 25.05 Q 278.9 23.1 280 22 Q 279.5 21.313 278.727 20.566 A 18.992 18.992 0 0 0 277.7 19.65 A 22.278 22.278 0 0 0 277.32 19.341 A 24.433 24.433 0 0 0 274.4 17.35 A 25.673 25.673 0 0 0 273.28 16.733 A 21.711 21.711 0 0 0 270.85 15.65 A 13.888 13.888 0 0 0 269.849 15.318 Q 268.74 15 267.9 15 Q 267.3 16.6 266.7 18.55 A 54.289 54.289 0 0 0 266.378 19.635 A 46.667 46.667 0 0 0 265.7 22.3 Q 265.3 24.1 265.05 25.65 A 32.277 32.277 0 0 0 265.004 25.944 Q 264.871 26.822 264.825 27.474 A 8.93 8.93 0 0 0 264.8 28.1 Q 264.8 28.9 265.15 29.9 Q 265.5 30.9 266 31.4 A 17.483 17.483 0 0 0 265.88 31.909 Q 265.765 32.435 265.724 32.815 Z M 386.5 89.1 Q 388.9 88.1 391.05 86.2 Q 393.2 84.3 394.8 81.9 Q 396.4 79.5 397.35 76.8 A 16.702 16.702 0 0 0 398.198 73.217 A 14.592 14.592 0 0 0 398.3 71.5 Q 396.3 71.8 393.9 73.35 Q 391.5 74.9 389.4 77.05 A 26.466 26.466 0 0 0 386.945 79.936 A 22.505 22.505 0 0 0 385.9 81.5 Q 385.014 82.955 384.689 84.17 A 5.15 5.15 0 0 0 384.5 85.5 A 4.077 4.077 0 0 0 385.924 88.643 A 5.928 5.928 0 0 0 386.5 89.1 Z" vector-effect="non-scaling-stroke"/></g></svg>
