<?xml version="1.0" encoding="iso-8859-1"?>
<!-- Generator: Adobe Illustrator 19.0.0, SVG Export Plug-In . SVG Version: 6.00 Build 0)  -->
<svg version="1.1" id="Capa_1" xmlns="http://www.w3.org/2000/svg" xmlns:xlink="http://www.w3.org/1999/xlink" x="0px" y="0px"
	 viewBox="0 0 490.651 490.651" style="enable-background:new 0 0 490.651 490.651;" xml:space="preserve">
<g>
	<g>
		<path d="M252.856,45.787L210.189,3.12c-4.16-4.16-10.923-4.16-15.083,0c-4.16,4.16-4.16,10.923,0,15.083l35.136,35.115
			l-35.136,35.136c-4.16,4.16-4.16,10.923,0,15.083c2.091,2.069,4.821,3.115,7.552,3.115c2.731,0,5.461-1.045,7.531-3.115
			l42.667-42.667C257.016,56.709,257.016,49.947,252.856,45.787z"/>
	</g>
</g>
<g>
	<g>
		<path d="M260.408,437.317l35.115-35.115c4.16-4.16,4.16-10.923,0-15.083c-4.16-4.16-10.923-4.16-15.083,0l-42.667,42.667
			c-4.16,4.16-4.16,10.923,0,15.083l42.667,42.667c2.091,2.069,4.821,3.115,7.552,3.115s5.461-1.045,7.531-3.136
			c4.16-4.16,4.16-10.923,0-15.083L260.408,437.317z"/>
	</g>
</g>
<g>
	<g>
		<path d="M245.325,42.651c-111.744,0-202.667,90.923-202.667,202.667c0,95.445,65.024,176.704,158.123,197.611
			c0.789,0.171,1.579,0.256,2.347,0.256c4.864,0,9.28-3.371,10.389-8.341c1.301-5.739-2.304-11.435-8.064-12.736
			c-83.285-18.709-141.461-91.413-141.461-176.789c0-99.989,81.344-181.333,181.333-181.333c5.888,0,10.667-4.779,10.667-10.667
			S251.213,42.651,245.325,42.651z"/>
	</g>
</g>
<g>
	<g>
		<path d="M289.869,47.728c-5.717-1.323-11.435,2.304-12.736,8.064c-1.301,5.739,2.304,11.435,8.064,12.736
			c83.285,18.709,141.461,91.413,141.461,176.789c0,99.989-81.344,181.333-181.333,181.333c-5.888,0-10.667,4.779-10.667,10.667
			s4.779,10.667,10.667,10.667c111.744,0,202.667-90.923,202.667-202.667C447.992,149.872,382.968,68.613,289.869,47.728z"/>
	</g>
</g>
<g>
</g>
<g>
</g>
<g>
</g>
<g>
</g>
<g>
</g>
<g>
</g>
<g>
</g>
<g>
</g>
<g>
</g>
<g>
</g>
<g>
</g>
<g>
</g>
<g>
</g>
<g>
</g>
<g>
</g>
</svg>
